# xmcd CD database file
#
# Track frame offsets:
#	150
#	35505
#	63060
#	85037
#	112440
#	133142
#	159869
#	176859
#	197233
#	225216
#	253047
#	279553
#	296908
#
# Disc length: 4196 seconds
#
# Revision: 0
# Processed by: cddbd v1.5.2PL0 Copyright (c) Steve Scherf et al.
# Submitted via: CDex 1.70beta2
#
DISCID=bc10620d
DTITLE=Dr. Michael White - Dancing in the Sky
DYEAR=2004
DGENRE=Jazz
TTITLE0=Algiers Hoodoo Woman
TTITLE1=Dancing In The Sky (Reflection)
TTITLE2=The Truth of the Blues
TTITLE3=Give It Up (Gypsy Second Line)
TTITLE4=The Hag's Rag
TTITLE5=Angel In The Day (Devil At Night)
TTITLE6=Jambalaya Strut
TTITLE7=When the Mighty Mississippi Sleeps
TTITLE8=New Orleans Bounce (Out of the Woods)
TTITLE9=Creole Nights
TTITLE10=Down by the Riverside
TTITLE11=Amazing Grace
TTITLE12=Dr. Michael White - Dancing in the Sky (Transition)
EXTD=YEAR: 2004
EXTT0=
EXTT1=
EXTT2=
EXTT3=
EXTT4=
EXTT5=
EXTT6=
EXTT7=
EXTT8=
EXTT9=
EXTT10=
EXTT11=
EXTT12=
PLAYORDER=
